0
SECTION
2
HEADER
9
$INSUNITS
70
4
9
$ACADVER
1
AC1014
9
$HANDSEED
5
FFFF
0
ENDSEC
0
SECTION
2
TABLES
0
TABLE
2
VPORT
5
8
100
AcDbSymbolTable
0
ENDTAB
0
TABLE
2
LTYPE
5
5
100
AcDbSymbolTable
0
LTYPE
5
14
100
AcDbSymbolTableRecord
100
AcDbLinetypeTableRecord
2
BYBLOCK
70
0
0
LTYPE
5
15
100
AcDbSymbolTableRecord
100
AcDbLinetypeTableRecord
2
BYLAYER
70
0
0
ENDTAB
0
TABLE
2
LAYER
5
2
100
AcDbSymbolTable
70
2
0
LAYER
5
50
100
AcDbSymbolTableRecord
100
AcDbLayerTableRecord
2
0
70
0
6
CONTINUOUS
0
ENDTAB
0
TABLE
2
STYLE
5
3
100
AcDbSymbolTable
70
1
0
STYLE
5
11
100
AcDbSymbolTableRecord
100
AcDbTextStyleTableRecord
2
STANDARD
70
0
0
ENDTAB
0
TABLE
2
VIEW
5
6
100
AcDbSymbolTable
70
0
0
ENDTAB
0
TABLE
2
UCS
5
7
100
AcDbSymbolTable
70
0
0
ENDTAB
0
TABLE
2
APPID
5
9
100
AcDbSymbolTable
70
2
0
APPID
5
12
100
AcDbSymbolTableRecord
100
AcDbRegAppTableRecord
2
ACAD
70
0
0
ENDTAB
0
TABLE
2
DIMSTYLE
5
A
100
AcDbSymbolTable
70
1
0
ENDTAB
0
TABLE
2
BLOCK_RECORD
5
1
100
AcDbSymbolTable
70
1
0
BLOCK_RECORD
5
1F
100
AcDbSymbolTableRecord
100
AcDbBlockTableRecord
2
*MODEL_SPACE
0
BLOCK_RECORD
5
1B
100
AcDbSymbolTableRecord
100
AcDbBlockTableRecord
2
*PAPER_SPACE
0
ENDTAB
0
ENDSEC
0
SECTION
2
BLOCKS
0
BLOCK
5
20
100
AcDbEntity
100
AcDbBlockBegin
2
*MODEL_SPACE
0
ENDBLK
5
21
100
AcDbEntity
100
AcDbBlockEnd
0
BLOCK
5
1C
100
AcDbEntity
100
AcDbBlockBegin
2
*PAPER_SPACE
0
ENDBLK
5
1D
100
AcDbEntity
100
AcDbBlockEnd
0
ENDSEC
0
SECTION
2
ENTITIES
0
LWPOLYLINE
5
100
100
AcDbEntity
8
0
100
AcDbPolyline
90
35
70
1
43
0.0
10
-172
20
-312.00003813207263
42
-0.41421356237309503
10
-174
20
-310.00003813207263
10
-174
20
-81.000038146978682
42
-0.41421356237309503
10
-172
20
-79.000038146978682
10
-150.00000213086602
20
-79.000038146978682
42
0.41421356237309503
10
-148.00000213086602
20
-77.000038146978696
10
-148.00000213086602
20
-71.000001028180137
42
0.41421356237309631
10
-150.00000213086602
20
-69.000001028180108
10
-172.00000000000011
20
-69.000001028180094
42
-0.41421356237309631
10
-174.00000000000009
20
-67.00000102818008
10
-174.00000000000009
20
-6.0000010281800638
42
-0.41421356237309687
10
-172.00000000000011
20
-4.0000010281800602
10
-156.00000230967996
20
-4.0000010281800629
42
0.41421356237309437
10
-154.00000230967999
20
-2.0000010281800673
10
-154.00000230967999
20
36.000000849366174
42
0.41421356237309503
10
-156.00000230967996
20
38.000000849366188
10
-172.00000000000006
20
38.000000849366174
42
-0.4142135623730937
10
-174.00000000000006
20
40.00000084936616
10
-174.00000000000003
20
166.99996185302729
42
-0.41421356237310542
10
-172.00000000000003
20
168.99996185302729
10
-67.772979940398116
20
168.99996185302726
42
-0.34199871419378586
10
-65.836488265371131
20
167.49996184557835
42
0.34199871419373129
10
-63.899996590344159
20
165.99996183812954
10
-29.00000049210627
20
165.99996183812959
42
-0.4142135646092025
10
-27.000000492106278
20
163.99996182286048
10
-27.000001095239089
20
84.999573063829743
42
0.4142135646092045
10
-22.000001095239092
20
79.999573025656957
10
-16.999999231567486
20
79.999573025656957
42
-0.41421356237309437
10
-14.999999231567482
20
77.999573025656943
10
-14.999999231567479
20
-307.00003813207263
42
-0.41421356237309825
10
-16.999999231567458
20
-309.00003813207258
10
-64.999999231567472
20
-309.00003813207258
42
0.4142135623730378
10
-65.999999231567458
20
-310.00003813207258
10
-65.9999992315675
20
-311.00003813207263
42
-0.41421356237305862
10
-66.999999231567458
20
-312.00003813207263
0
LWPOLYLINE
5
101
100
AcDbEntity
8
0
100
AcDbPolyline
90
35
70
1
43
0.0
10
-150.00000213086602
20
-69.000001028180108
10
-172.00000000000011
20
-69.000001028180094
42
-0.41421356237309631
10
-174.00000000000009
20
-67.00000102818008
10
-174.00000000000009
20
-6.0000010281800638
42
-0.41421356237309687
10
-172.00000000000011
20
-4.0000010281800602
10
-156.00000230967996
20
-4.0000010281800629
42
0.41421356237309437
10
-154.00000230967999
20
-2.0000010281800673
10
-154.00000230967999
20
36.000000849366174
42
0.41421356237309503
10
-156.00000230967996
20
38.000000849366188
10
-172.00000000000006
20
38.000000849366174
42
-0.4142135623730937
10
-174.00000000000006
20
40.00000084936616
10
-174.00000000000003
20
166.99996185302729
42
-0.41421356237310542
10
-172.00000000000003
20
168.99996185302729
10
-67.772979940398116
20
168.99996185302726
42
-0.34199871419378586
10
-65.836488265371131
20
167.49996184557835
42
0.34199871419373129
10
-63.899996590344159
20
165.99996183812954
10
-29.00000049210627
20
165.99996183812959
42
-0.4142135646092025
10
-27.000000492106278
20
163.99996182286048
10
-27.000001095239089
20
84.999573063829743
42
0.4142135646092045
10
-22.000001095239092
20
79.999573025656957
10
-16.999999231567486
20
79.999573025656957
42
-0.41421356237309437
10
-14.999999231567482
20
77.999573025656943
10
-14.999999231567479
20
-307.00003813207263
42
-0.41421356237309825
10
-16.999999231567458
20
-309.00003813207258
10
-64.999999231567472
20
-309.00003813207258
42
0.4142135623730378
10
-65.999999231567458
20
-310.00003813207258
10
-65.9999992315675
20
-311.00003813207263
42
-0.41421356237305862
10
-66.999999231567458
20
-312.00003813207263
10
-172
20
-312.00003813207263
42
-0.41421356237309503
10
-174
20
-310.00003813207263
10
-174
20
-81.000038146978682
42
-0.41421356237309503
10
-172
20
-79.000038146978682
10
-150.00000213086602
20
-79.000038146978682
42
0.41421356237309503
10
-148.00000213086602
20
-77.000038146978696
10
-148.00000213086602
20
-71.000001028180137
42
0.41421356237309631
0
ENDSEC
0
SECTION
2
OBJECTS
0
DICTIONARY
5
C
100
AcDbDictionary
3
ACAD_GROUP
350
D
3
ACAD_MLINESTYLE
350
17
0
DICTIONARY
5
D
100
AcDbDictionary
0
DICTIONARY
5
1A
330
C
100
AcDbDictionary
0
DICTIONARY
5
17
100
AcDbDictionary
0
ENDSEC
0
EOF
