0
SECTION
2
HEADER
9
$INSUNITS
70
4
9
$ACADVER
1
AC1014
9
$HANDSEED
5
FFFF
0
ENDSEC
0
SECTION
2
TABLES
0
TABLE
2
VPORT
5
8
100
AcDbSymbolTable
0
ENDTAB
0
TABLE
2
LTYPE
5
5
100
AcDbSymbolTable
0
LTYPE
5
14
100
AcDbSymbolTableRecord
100
AcDbLinetypeTableRecord
2
BYBLOCK
70
0
0
LTYPE
5
15
100
AcDbSymbolTableRecord
100
AcDbLinetypeTableRecord
2
BYLAYER
70
0
0
ENDTAB
0
TABLE
2
LAYER
5
2
100
AcDbSymbolTable
70
2
0
LAYER
5
50
100
AcDbSymbolTableRecord
100
AcDbLayerTableRecord
2
0
70
0
6
CONTINUOUS
0
ENDTAB
0
TABLE
2
STYLE
5
3
100
AcDbSymbolTable
70
1
0
STYLE
5
11
100
AcDbSymbolTableRecord
100
AcDbTextStyleTableRecord
2
STANDARD
70
0
0
ENDTAB
0
TABLE
2
VIEW
5
6
100
AcDbSymbolTable
70
0
0
ENDTAB
0
TABLE
2
UCS
5
7
100
AcDbSymbolTable
70
0
0
ENDTAB
0
TABLE
2
APPID
5
9
100
AcDbSymbolTable
70
2
0
APPID
5
12
100
AcDbSymbolTableRecord
100
AcDbRegAppTableRecord
2
ACAD
70
0
0
ENDTAB
0
TABLE
2
DIMSTYLE
5
A
100
AcDbSymbolTable
70
1
0
ENDTAB
0
TABLE
2
BLOCK_RECORD
5
1
100
AcDbSymbolTable
70
1
0
BLOCK_RECORD
5
1F
100
AcDbSymbolTableRecord
100
AcDbBlockTableRecord
2
*MODEL_SPACE
0
BLOCK_RECORD
5
1B
100
AcDbSymbolTableRecord
100
AcDbBlockTableRecord
2
*PAPER_SPACE
0
ENDTAB
0
ENDSEC
0
SECTION
2
BLOCKS
0
BLOCK
5
20
100
AcDbEntity
100
AcDbBlockBegin
2
*MODEL_SPACE
0
ENDBLK
5
21
100
AcDbEntity
100
AcDbBlockEnd
0
BLOCK
5
1C
100
AcDbEntity
100
AcDbBlockBegin
2
*PAPER_SPACE
0
ENDBLK
5
1D
100
AcDbEntity
100
AcDbBlockEnd
0
ENDSEC
0
SECTION
2
ENTITIES
0
LINE
5
100
100
AcDbEntity
8
0
100
AcDbLine
10
158.81325959642774
20
69.000001028180037
30
0
11
165
21
69.000001028180037
31
0
0
LINE
5
101
100
AcDbEntity
8
0
100
AcDbLine
10
164.99999923156747
20
312.00003813207263
30
0
11
169.00000000000003
21
312.00003813207263
31
0
0
LINE
5
102
100
AcDbEntity
8
0
100
AcDbLine
10
169.00000000000003
20
2.0000010281800584
30
0
11
169.00000000000003
21
69.000001028180094
31
0
0
LINE
5
103
100
AcDbEntity
8
0
100
AcDbLine
10
14.999999231567482
20
-77.999573025656943
30
0
11
14.999999231567518
21
304.00003813207258
31
0
0
ARC
5
104
100
AcDbEntity
8
0
100
AcDbCircle
10
16.999999231567489
20
-77.999573025656943
30
0
40
2.0000000000000107
210
0
220
0
230
1
100
AcDbArc
50
180
51
269.99999999999989
0
LINE
5
105
100
AcDbEntity
8
0
100
AcDbLine
10
164.83305652840926
20
14.000001028180048
30
0
11
165
21
14.000001028180048
31
0
0
LINE
5
106
100
AcDbEntity
8
0
100
AcDbLine
10
164.83305652840926
20
2.0000010281800407
30
0
11
152
21
2.0000010281800407
31
0
0
LINE
5
107
100
AcDbEntity
8
0
100
AcDbLine
10
14.999999231567456
20
306.00003813207258
30
0
11
14.999999231567518
21
304.00003813207258
31
0
0
LINE
5
108
100
AcDbEntity
8
0
100
AcDbLine
10
163
20
79.000038146978724
30
0
11
145.00000213086602
21
79.000038146978667
31
0
0
LINE
5
109
100
AcDbEntity
8
0
100
AcDbLine
10
165
20
-168.99996185302729
30
0
11
169.00000000000003
21
-168.99996185302729
31
0
0
LINE
5
110
100
AcDbEntity
8
0
100
AcDbLine
10
163
20
-168.99996185302729
30
0
11
165
21
-168.99996185302729
31
0
0
LINE
5
111
100
AcDbEntity
8
0
100
AcDbLine
10
14.999999231567456
20
309.00003813207258
30
0
11
65.999999231567458
21
309.00003813207258
31
0
0
LINE
5
112
100
AcDbEntity
8
0
100
AcDbLine
10
165
20
69.000001028180037
30
0
11
169.00000000000003
21
69.000001028180094
31
0
0
LINE
5
113
100
AcDbEntity
8
0
100
AcDbLine
10
164.83305652840926
20
2.0000010281800407
30
0
11
169.00000000000003
21
2.0000010281800584
31
0
0
LINE
5
114
100
AcDbEntity
8
0
100
AcDbLine
10
17.000099231567486
20
-79.999573025656943
30
0
11
16.999999231567486
21
-79.999573025656957
31
0
0
ARC
5
115
100
AcDbEntity
8
0
100
AcDbCircle
10
63.899996590344102
20
-167.99996183812962
30
0
40
2.0000000000000506
210
0
220
-0
230
1
100
AcDbArc
50
14.477511965539129
51
89.99999999999838
0
ARC
5
116
100
AcDbEntity
8
0
100
AcDbCircle
10
63.899996590344102
20
-167.99996183812962
30
0
40
2.0000000000000506
210
0
220
-0
230
1
100
AcDbArc
50
14.477511965539129
51
89.99999999999838
0
LINE
5
117
100
AcDbEntity
8
0
100
AcDbLine
10
16.999999231567486
20
-79.999573025656957
30
0
11
22.000001095239089
21
-79.999573025656943
31
0
0
LINE
5
118
100
AcDbEntity
8
0
100
AcDbLine
10
145.00000213086599
20
69.000001028180137
30
0
11
158.81325959642774
21
69.000001028180037
31
0
0
LINE
5
119
100
AcDbEntity
8
0
100
AcDbLine
10
27.000000476837158
20
-165.99996183812959
30
0
11
27.000001095239092
21
-84.999573063829743
31
0
0
LINE
5
120
100
AcDbEntity
8
0
100
AcDbLine
10
32.000000476837158
20
-165.99996183812959
30
0
11
27.000000476837158
21
-165.99996183812959
31
0
0
LINE
5
121
100
AcDbEntity
8
0
100
AcDbLine
10
163
20
-168.99996185302729
30
0
11
67.77297994039813
21
-168.99996185302729
31
0
0
ARC
5
122
100
AcDbEntity
8
0
100
AcDbCircle
10
-67.772979940398073
20
-166.99996185302734
30
0
40
1.9999999999999574
210
0
220
0
230
-1
100
AcDbArc
50
269.99999999999835
51
345.52248803446417
0
ARC
5
123
100
AcDbEntity
8
0
100
AcDbCircle
10
22.000001095239089
20
-84.999573025656957
30
0
40
5
210
0
220
0
230
1
100
AcDbArc
50
0
51
90
0
LINE
5
124
100
AcDbEntity
8
0
100
AcDbLine
10
63.899996590344159
20
-165.99996183812954
30
0
11
32.000000476837158
21
-165.99996183812959
31
0
0
LINE
5
125
100
AcDbEntity
8
0
100
AcDbLine
10
152
20
-36.999961853027813
30
0
11
152
21
2.0000010281800407
31
0
0
ARC
5
126
100
AcDbEntity
8
0
100
AcDbCircle
10
-67.772979940398073
20
-166.99996185302734
30
0
40
1.9999999999999574
210
0
220
0
230
-1
100
AcDbArc
50
269.99999999999835
51
345.52248803446417
0
LINE
5
127
100
AcDbEntity
8
0
100
AcDbLine
10
65.999999231567458
20
312.00003813207263
30
0
11
164.99999923156747
21
312.00003813207263
31
0
0
LINE
5
128
100
AcDbEntity
8
0
100
AcDbLine
10
169.00000000000003
20
79.000038146978682
30
0
11
169.00000000000003
21
312.00003813207263
31
0
0
LINE
5
129
100
AcDbEntity
8
0
100
AcDbLine
10
65.999999231567458
20
309.00003813207258
30
0
11
65.999999231567458
21
312.00003813207263
31
0
0
LINE
5
130
100
AcDbEntity
8
0
100
AcDbLine
10
14.999999231567456
20
309.00003813207258
30
0
11
14.999999231567456
21
306.00003813207258
31
0
0
LINE
5
131
100
AcDbEntity
8
0
100
AcDbLine
10
145.00000213086602
20
79.000038146978667
30
0
11
169.00000000000003
21
79.000038146978682
31
0
0
LINE
5
132
100
AcDbEntity
8
0
100
AcDbLine
10
169.00000000000003
20
2.0000010281800584
30
0
11
152
21
2.0000010281800407
31
0
0
LINE
5
133
100
AcDbEntity
8
0
100
AcDbLine
10
152
20
-40.999998971819942
30
0
11
169.00000000000003
21
-40.999998971819942
31
0
0
LINE
5
134
100
AcDbEntity
8
0
100
AcDbLine
10
169.00000000000003
20
-56.999961853027813
30
0
11
169.00000000000003
21
-40.999998971819942
31
0
0
LINE
5
135
100
AcDbEntity
8
0
100
AcDbLine
10
152
20
-36.999961853027813
30
0
11
152
21
-40.999998971819942
31
0
0
LINE
5
136
100
AcDbEntity
8
0
100
AcDbLine
10
169.00000000000003
20
-148.99996185302729
30
0
11
169.00000000000003
21
-168.99996185302729
31
0
0
LINE
5
137
100
AcDbEntity
8
0
100
AcDbLine
10
132.00000000000003
20
-148.99996185302729
30
0
11
169.00000000000003
21
-148.99996185302729
31
0
0
LINE
5
138
100
AcDbEntity
8
0
100
AcDbLine
10
169.00000000000003
20
-108.99996185302729
30
0
11
132.00000000000003
21
-108.99996185302729
31
0
0
LINE
5
139
100
AcDbEntity
8
0
100
AcDbLine
10
132.00000000000003
20
-108.99996185302729
30
0
11
132.00000000000003
21
-148.99996185302729
31
0
0
LINE
5
140
100
AcDbEntity
8
0
100
AcDbLine
10
169.00000000000003
20
-108.99996185302729
30
0
11
169.00000000000003
21
-56.999961853027813
31
0
0
LINE
5
141
100
AcDbEntity
8
0
100
AcDbLine
10
145.00000213086599
20
69.000001028180137
30
0
11
143.00000213086599
21
69.000001028180137
31
0
0
LINE
5
142
100
AcDbEntity
8
0
100
AcDbLine
10
143.00000213086599
20
69.000001028180137
30
0
11
143.00000213086599
21
69.000038146978667
31
0
0
LINE
5
143
100
AcDbEntity
8
0
100
AcDbLine
10
143.00000213086599
20
79.000038146978667
30
0
11
145.00000213086602
21
79.000038146978667
31
0
0
LINE
5
144
100
AcDbEntity
8
0
100
AcDbLine
10
143.00000213086599
20
79.000038146978667
30
0
11
139.00000213086599
21
79.000038146978667
31
0
0
LINE
5
145
100
AcDbEntity
8
0
100
AcDbLine
10
139.00000213086599
20
79.000038146978667
30
0
11
139.00000213086599
21
69.000038146978667
31
0
0
LINE
5
146
100
AcDbEntity
8
0
100
AcDbLine
10
139.00000213086599
20
69.000038146978667
30
0
11
143.00000213086599
21
69.000038146978667
31
0
0
ENDSEC
0
SECTION
2
OBJECTS
0
DICTIONARY
5
C
100
AcDbDictionary
3
ACAD_GROUP
350
D
3
ACAD_MLINESTYLE
350
17
0
DICTIONARY
5
D
100
AcDbDictionary
0
DICTIONARY
5
1A
330
C
100
AcDbDictionary
0
DICTIONARY
5
17
100
AcDbDictionary
0
ENDSEC
0
EOF
